<?xml version="1.0" standalone="no"?>
<!DOCTYPE svg PUBLIC "-//W3C//DTD SVG 20010904//EN"
 "http://www.w3.org/TR/2001/REC-SVG-20010904/DTD/svg10.dtd">
<svg version="1.0" xmlns="http://www.w3.org/2000/svg"
 width="1152.000000pt" height="1152.000000pt" viewBox="0 0 1152.000000 1152.000000"
 preserveAspectRatio="xMidYMid meet">
<metadata>
Created by potrace 1.11, written by Peter Selinger 2001-2013
</metadata>
<g transform="translate(0.000000,1152.000000) scale(0.100000,-0.100000)"
fill="#000000" stroke="none">
<path d="M9699 7968 l-186 -371 -38 64 c-132 221 -258 363 -408 463 -314 209
-622 176 -903 -96 -119 -116 -199 -228 -290 -412 -113 -228 -189 -479 -231
-761 -22 -152 -25 -672 -5 -805 21 -133 61 -305 99 -425 35 -109 93 -258 99
-253 1 2 -4 46 -12 98 -34 224 -27 609 16 845 39 220 125 504 199 657 88 183
238 372 380 477 203 150 438 183 644 88 198 -90 379 -275 543 -553 12 -21 15
-17 242 421 l150 290 -53 318 c-30 176 -55 321 -57 322 -2 2 -87 -163 -189
-367z"/>
<path d="M330 8315 c0 -3 49 -171 109 -373 60 -202 163 -549 229 -772 66 -223
179 -603 251 -845 72 -242 308 -1041 525 -1775 218 -734 400 -1345 406 -1357
6 -15 18 -23 34 -23 22 0 27 8 50 82 24 80 494 1650 786 2631 83 277 146 473
151 465 4 -7 84 -272 179 -588 588 -1973 764 -2557 772 -2572 5 -10 19 -18 33
-18 19 0 26 8 39 47 8 27 301 1016 651 2198 466 1574 645 2166 669 2210 l33
60 536 3 c336 1 537 -1 537 -7 0 -6 -15 -36 -34 -68 -18 -32 -216 -374 -440
-760 l-406 -703 0 -155 0 -155 194 0 c203 0 313 -13 417 -49 202 -69 337 -185
433 -371 86 -167 119 -329 119 -590 0 -204 -17 -321 -69 -480 -82 -246 -222
-430 -385 -504 -145 -67 -358 -44 -526 55 -73 43 -195 165 -255 256 -39 58
-126 223 -140 265 -3 7 -96 -26 -254 -92 -137 -56 -253 -106 -257 -110 -11
-10 37 -139 99 -264 267 -538 723 -820 1252 -776 392 33 692 214 924 559 151
225 238 455 285 746 25 154 25 516 0 670 -33 206 -75 339 -162 520 -79 163
-161 279 -280 394 -135 131 -305 235 -483 297 -35 13 -51 23 -47 32 3 7 214
374 470 815 l465 802 -2 150 -3 150 -1245 3 -1246 2 -459 -1564 c-253 -861
-463 -1562 -467 -1558 -3 4 -209 698 -457 1542 -248 844 -455 1545 -461 1558
l-10 22 -325 0 c-203 0 -325 -4 -325 -10 0 -8 115 -400 261 -884 l38 -130 -75
-255 c-42 -141 -123 -416 -181 -611 -57 -195 -150 -508 -205 -695 -55 -187
-114 -387 -131 -443 -18 -62 -33 -98 -37 -90 -4 7 -207 690 -450 1518 -243
828 -449 1526 -457 1553 l-14 47 -329 0 c-182 0 -330 -2 -330 -5z"/>
<path d="M10580 8302 c-179 -47 -321 -208 -351 -400 -38 -232 124 -477 355
-538 216 -58 457 51 559 252 36 72 49 127 48 218 -1 320 -300 549 -611 468z
m239 -63 c66 -15 119 -46 181 -105 68 -65 109 -143 123 -237 36 -229 -116
-435 -353 -479 -173 -33 -357 66 -441 237 -32 66 -34 75 -34 180 0 105 2 113
34 178 95 188 279 273 490 226z"/>
<path d="M10518 8114 c-5 -4 -8 -128 -8 -276 l0 -268 55 0 55 0 0 115 0 115
51 0 50 0 54 -115 54 -115 56 0 c30 0 55 2 55 4 0 2 -25 57 -56 122 -30 65
-52 120 -47 121 4 2 23 12 41 23 103 63 94 203 -16 253 -39 18 -71 22 -192 25
-80 2 -148 0 -152 -4z m296 -93 c18 -17 26 -35 26 -58 0 -71 -36 -93 -151 -93
l-69 0 0 91 0 91 84 -3 c73 -4 88 -7 110 -28z"/>
<path d="M7390 4698 c0 -19 117 -342 154 -428 196 -441 495 -798 801 -957 165
-85 324 -119 522 -110 140 6 233 26 356 77 153 64 367 230 515 400 82 94 234
317 271 397 l24 52 -48 245 c-26 135 -49 246 -50 246 -2 0 -27 -39 -56 -87
-132 -221 -182 -287 -329 -434 -197 -198 -307 -273 -522 -355 -134 -51 -239
-68 -388 -61 -266 12 -490 107 -711 300 -184 161 -292 299 -459 587 -73 126
-80 138 -80 128z"/>
</g>
</svg>
